<svg version="1.1" id="Layer_1" xmlns="http://www.w3.org/2000/svg" x="0" y="0" viewBox="0 0 67.02 58.38" xml:space="preserve"><style>.st0{fill:#333}</style><path class="st0" d="M33.99 28.54c-4.8 0-8.71-4.95-8.71-11.04s3.91-11.04 8.71-11.04 8.71 4.95 8.71 11.04-3.91 11.04-8.71 11.04zm0-21.59c-4.52 0-8.2 4.73-8.2 10.54s3.68 10.54 8.2 10.54 8.2-4.73 8.2-10.54-3.68-10.54-8.2-10.54zm.02 23.97h-.02c-.33 0-.6-.27-.6-.6 0-.33.27-.6.6-.6h.04c.33 0 .61.27.61.6 0 .33-.27.6-.6.6h-.03zm-2.16-.26a.607.607 0 01-.44-.73c.09-.32.41-.51.73-.43.32.07.52.4.44.72-.07.28-.31.46-.58.46-.05 0-.1-.01-.15-.02zm3.6-.44c-.09-.33.11-.65.43-.74.32-.08.65.12.73.44a.6.6 0 01-.43.73c-.05.01-.1.02-.15.02-.27 0-.51-.18-.58-.45zm-5.61-.32a.606.606 0 01-.26-.81c.16-.29.52-.41.81-.26a.603.603 0 01-.28 1.14c-.09 0-.18-.02-.27-.07zm7.53-.29a.603.603 0 01.26-.81c.29-.15.65-.04.8.26.16.29.05.65-.25.81-.09.04-.18.07-.28.07a.57.57 0 01-.53-.33zm-9.31-.89a.593.593 0 01-.09-.84c.21-.26.59-.3.85-.09a.6.6 0 01.08.84c-.12.15-.29.22-.46.22-.14 0-.27-.04-.38-.13zm11.06-.11a.602.602 0 01.07-.85h.01a.6.6 0 01.84.08c.21.26.17.64-.08.85-.11.09-.25.13-.38.13-.17 0-.35-.07-.46-.21zm-12.58-1.38a.603.603 0 01.08-.85.6.6 0 01.84.07c.22.25.18.63-.07.85-.11.09-.25.14-.39.14-.17 0-.34-.07-.46-.21zm14.08.03a.59.59 0 01-.07-.84c.21-.26.59-.29.84-.08.26.22.29.59.08.85-.12.14-.29.21-.46.21-.14 0-.28-.04-.39-.14zm-15.3-1.75a.612.612 0 01.21-.83.6.6 0 01.82.21c.18.28.08.65-.2.82-.1.06-.2.09-.31.09-.2 0-.4-.11-.52-.29zm16.54.16a.592.592 0 01-.21-.82.6.6 0 01.82-.21c.28.17.38.54.21.82a.6.6 0 01-.52.3c-.1 0-.21-.03-.3-.09zm-17.48-2.04c-.13-.31.01-.66.32-.78a.597.597 0 11.46 1.1.58.58 0 01-.78-.32zm18.46.28a.604.604 0 01-.33-.78c.13-.31.48-.46.78-.33a.595.595 0 01-.22 1.15c-.08 0-.16-.01-.23-.04zm-19.13-2.27a.6.6 0 01.43-.73c.32-.09.65.11.73.43.09.32-.1.65-.43.73-.05.01-.1.02-.15.02a.595.595 0 01-.58-.45zm19.84.38a.593.593 0 01-.43-.73.6.6 0 01.73-.43c.32.09.51.41.43.73-.07.27-.32.45-.58.45-.05 0-.1 0-.15-.02zm-20.24-2.43c-.04-.33.19-.63.52-.67.33-.04.63.19.67.52.04.33-.19.63-.52.67h-.08c-.28 0-.54-.22-.59-.52zm20.69.47a.606.606 0 01-.53-.67.606.606 0 011.2.15c-.04.3-.3.52-.6.52H44zM23.18 17.5c0-.33.27-.6.6-.6.33 0 .6.27.6.6 0 .33-.27.6-.6.6-.32 0-.6-.27-.6-.6zm20.41-.04c0-.33.27-.6.6-.6.33-.01.6.26.6.59v.01c0 .33-.27.59-.6.59-.33 0-.6-.26-.6-.59zm-19.75-1.37a.591.591 0 01-.52-.67c.04-.33.34-.56.67-.52.32.04.56.34.52.67-.04.3-.3.52-.6.52h-.07zm19.63-.57c-.05-.33.19-.63.52-.67.32-.04.62.19.67.52.04.33-.2.63-.52.67-.03 0-.05.01-.08.01-.3 0-.55-.22-.59-.53zM24.14 14.1a.603.603 0 01-.43-.74.6.6 0 01.73-.43c.32.09.51.42.43.74-.07.27-.32.45-.58.45-.05 0-.1-.01-.15-.02zm18.96-.48a.6.6 0 01.43-.73c.32-.09.64.11.73.43.08.32-.11.64-.43.73-.05.01-.1.02-.15.02-.27 0-.51-.18-.58-.45zm-18.41-1.46a.6.6 0 01-.32-.78c.12-.31.47-.46.78-.33.31.13.45.48.33.78-.1.24-.32.37-.56.37a.62.62 0 01-.23-.04zm17.79-.37c-.13-.3.01-.66.32-.78.3-.13.66.01.78.32.13.31-.01.66-.32.78a.48.48 0 01-.23.05c-.23 0-.45-.14-.55-.37zm-16.96-1.47a.594.594 0 01-.21-.82c.17-.29.54-.38.82-.21.29.17.38.54.21.82-.11.19-.31.29-.51.29-.11 0-.21-.02-.31-.08zm16.09-.25a.594.594 0 01.21-.82.6.6 0 01.82.2c.17.29.08.65-.2.83-.1.06-.21.08-.31.08-.21 0-.4-.1-.52-.29zM26.6 8.62a.6.6 0 01-.07-.84c.21-.26.59-.29.85-.08.25.22.28.6.07.85-.12.14-.29.21-.46.21a.488.488 0 01-.39-.14zm13.89-.11a.6.6 0 01.07-.84.6.6 0 11.78.91c-.11.1-.25.14-.39.14a.599.599 0 01-.46-.21zM27.96 7.13a.592.592 0 01.08-.84.6.6 0 01.84.08c.21.26.18.64-.08.85-.11.09-.25.13-.38.13-.17 0-.35-.07-.46-.22zm11.18.06a.612.612 0 01-.08-.85.6.6 0 01.84-.08c.26.21.3.58.09.84-.12.15-.29.22-.47.22-.13 0-.27-.04-.38-.13zm-9.58-1.28a.603.603 0 01.26-.81.6.6 0 01.81.26c.15.29.04.65-.26.81-.09.04-.18.07-.27.07-.22 0-.43-.12-.54-.33zm8.01.24a.592.592 0 01-.26-.81c.15-.29.51-.41.8-.26.3.15.42.51.26.81-.1.2-.31.32-.53.32-.09 0-.19-.02-.27-.06zm-6.18-1.08c-.08-.32.11-.65.44-.73h-.01c.33-.08.65.11.73.43.09.32-.11.65-.43.73-.05.01-.1.02-.15.02-.26 0-.51-.18-.58-.45zm4.43.42a.594.594 0 01-.44-.73c.08-.32.4-.51.72-.43.33.07.52.4.44.72-.07.28-.31.46-.58.46a.59.59 0 01-.14-.02zm-2.46-.83c0-.33.27-.6.6-.6.34 0 .61.27.61.6 0 .33-.27.6-.6.6-.33.01-.6-.26-.61-.6z"/><path class="st0" d="M34.09 11.59c1.93 0 3.07 1.39 3.45 2.59l.21.66h.28v-3.62h-.25l-.02.03c-.46.58-.72.78-1 .78-.17 0-.31-.08-.52-.2l-.08-.04c-.65-.37-1.36-.57-2.1-.57-1.72 0-3.17.68-4.2 1.96-.89 1.11-1.39 2.61-1.43 4.22v.18c.03 1.62.54 3.11 1.43 4.22 1.03 1.28 2.48 1.96 4.2 1.96.74 0 1.45-.19 2.1-.57l.08-.04c.21-.12.34-.2.52-.2.28 0 .55.2 1 .78l.02.03h.25v-3.62h-.28l-.21.66c-.38 1.19-1.52 2.59-3.45 2.59-3.34 0-3.65-4.43-3.66-5.9.01-1.47.31-5.9 3.66-5.9z"/><path transform="rotate(-45.001 34.16 17.493)" class="st0" d="M32.97 16.3h2.38v2.38h-2.38z"/><path class="st0" d="M10.5 41.15c1.93 0 3.07 1.39 3.45 2.59l.21.66h.28v-3.62h-.24l-.02.03c-.46.58-.72.78-1 .78-.17 0-.31-.08-.52-.2l-.08-.04c-.65-.37-1.36-.57-2.1-.57-1.72 0-3.17.68-4.2 1.96-.89 1.11-1.39 2.61-1.43 4.22v.18c.03 1.62.54 3.11 1.43 4.22 1.03 1.28 2.48 1.96 4.2 1.96.74 0 1.45-.19 2.1-.57l.08-.04c.21-.12.34-.2.52-.2.28 0 .55.2 1 .78l.02.03h.25V49.7h-.28l-.21.66c-.38 1.19-1.52 2.59-3.45 2.59-3.34 0-3.65-4.43-3.66-5.9 0-1.47.31-5.9 3.65-5.9zm15.1.23l.45.02c.76.03.94.13.94 2.57v2.7h-6.47v-2.7c0-2.44.18-2.54.94-2.57l.45-.02v-.37h-4.54v.37l.45.02c.76.03.94.13.94 2.57v6.08c0 2.44-.18 2.54-.94 2.57l-.45.02v.37h4.54v-.37l-.45-.02c-.76-.03-.94-.13-.94-2.57v-3.01h6.47v3.01c0 2.44-.18 2.54-.94 2.57l-.45.02v.37h4.54v-.37l-.45-.02c-.76-.03-.94-.13-.94-2.57v-6.08c0-2.44.18-2.54.94-2.57l.45-.02v-.37H25.6v.37zm15.1 0l.45.02c1.04.05 1.66 1.95 1.66 3.75v3.71c0 2.28-1.5 3.75-3.82 3.75-2.47 0-3.89-1.32-3.89-3.61v-5.03c0-2.44.18-2.54.94-2.57l.45-.02v-.37h-4.54v.37l.45.02c.76.03.94.13.94 2.57v5.05c0 2.59 1.92 4.19 5.02 4.19 2.98 0 4.9-1.71 4.9-4.35v-3.71c0-2.53.37-3.69 1.21-3.75l.27-.02v-.37H40.7v.37zm11.44-.36h-5.71v.37l.45.02c.76.03.94.13.94 2.57v6.08c0 2.44-.18 2.54-.94 2.57l-.45.02v.37h5.07v-.37l-.45-.02c-1.3-.07-1.47-.17-1.47-2.57v-1.98h2.63c2.65 0 4.23-1.27 4.23-3.4 0-2.19-1.73-3.66-4.3-3.66zm-2.55 2.96c0-2.38.06-2.57.75-2.57h1.81c1.61 0 2.19 1.74 2.19 3.22 0 1.15-.28 3.08-2.12 3.08h-2.63v-3.73zm13.09-2.58l.45-.02v-.37h-4.54v.37l.45.02c.76.03.94.13.94 2.57v6.08c0 2.44-.18 2.54-.94 2.57l-.45.02v.37h4.54v-.37l-.45-.02c-.76-.03-.94-.13-.94-2.57v-6.08c-.01-2.43.17-2.53.94-2.57z"/></svg>